HIERARCHY
ROOT Hips
{
 OFFSET 0.000000 0.000000 0.000000
 CHANNELS 6 Xposition Yposition Zposition Yrotation Xrotation Zrotation
 JOINT Chest
 {
  OFFSET 0.000000 9.585900 0.002600
  CHANNELS 3 Yrotation Xrotation Zrotation
  JOINT Chest2
  {
   OFFSET 0.000000 9.601200 -0.005300
   CHANNELS 3 Yrotation Xrotation Zrotation
   JOINT Chest3
   {
    OFFSET 0.000000 9.561800 0.000000
    CHANNELS 3 Yrotation Xrotation Zrotation
    JOINT Chest4
    {
     OFFSET 0.000000 9.552100 0.000000
     CHANNELS 3 Yrotation Xrotation Zrotation
     JOINT Neck
     {
      OFFSET 0.000000 14.453000 0.000000
      CHANNELS 3 Yrotation Xrotation Zrotation
      JOINT Head
      {
       OFFSET 0.000000 8.936500 -0.011300
       CHANNELS 3 Yrotation Xrotation Zrotation
       End Site
       {
        OFFSET 0.000000 17.073600 -0.006000
       }
      }
     }
     JOINT RightCollar
     {
      OFFSET -2.921100 9.558500 0.000000
      CHANNELS 3 Yrotation Xrotation Zrotation
      JOINT RightShoulder
      {
       OFFSET -13.519700 0.000000 0.000000
       CHANNELS 3 Yrotation Xrotation Zrotation
       JOINT RightElbow
       {
        OFFSET 0.000000 -29.696600 0.000000
        CHANNELS 3 Yrotation Xrotation Zrotation
        JOINT RightWrist
        {
         OFFSET 0.000000 -24.004700 0.000000
         CHANNELS 3 Yrotation Xrotation Zrotation
         End Site
         {
          OFFSET 0.000000 -17.728500 0.000000
         }
        }
       }
      }
     }
     JOINT LeftCollar
     {
      OFFSET 2.921100 9.558500 0.000000
      CHANNELS 3 Yrotation Xrotation Zrotation
      JOINT LeftShoulder
      {
       OFFSET 13.519700 0.000000 0.000000
       CHANNELS 3 Yrotation Xrotation Zrotation
       JOINT LeftElbow
       {
        OFFSET 0.000000 -29.696600 0.000000
        CHANNELS 3 Yrotation Xrotation Zrotation
        JOINT LeftWrist
        {
         OFFSET 0.000000 -24.004700 0.000000
         CHANNELS 3 Yrotation Xrotation Zrotation
         End Site
         {
          OFFSET 0.000000 -17.728500 0.000000
         }
        }
       }
      }
     }
    }
   }
  }
 }
 JOINT RightHip
 {
  OFFSET -7.771700 -0.012900 -0.001300
  CHANNELS 3 Yrotation Xrotation Zrotation
  JOINT RightKnee
  {
   OFFSET 0.000000 -40.869800 0.001200
   CHANNELS 3 Yrotation Xrotation Zrotation
   JOINT RightAnkle
   {
    OFFSET 0.000000 -39.717900 0.002100
    CHANNELS 3 Yrotation Xrotation Zrotation
    JOINT RightToe
    {
     OFFSET 0.000000 -4.965400 11.033500
     CHANNELS 3 Yrotation Xrotation Zrotation
     End Site
     {
      OFFSET 0.000000 -1.423100 5.872300
     }
    }
   }
  }
 }
 JOINT LeftHip
 {
  OFFSET 7.771700 -0.012900 -0.001300
  CHANNELS 3 Yrotation Xrotation Zrotation
  JOINT LeftKnee
  {
   OFFSET 0.000000 -40.869800 0.001200
   CHANNELS 3 Yrotation Xrotation Zrotation
   JOINT LeftAnkle
   {
    OFFSET 0.000000 -39.717900 0.002100
    CHANNELS 3 Yrotation Xrotation Zrotation
    JOINT LeftToe
    {
     OFFSET 0.000000 -4.965400 11.033500
     CHANNELS 3 Yrotation Xrotation Zrotation
     End Site
     {
      OFFSET 0.000000 -1.423100 5.872300
     }
    }
   }
  }
 }
}
MOTION
Frames: 9
Frame Time: 0.008333
0.000000 85.388000 0.000000 0.000000 -5.767877 0.000000 0.000000 11.653817 0.000000 0.000000 -5.885947 0.000000 0.000000 -0.000000 0.000000 0.000000 -0.000000 0.000000 0.000000 12.528835 0.000000 0.000000 0.711642 0.000000 0.000000 -0.000000 0.000000 0.000000 0.000000 -90.000000 0.000000 -2.309062 0.000000 0.000000 2.309062 0.000000 0.000000 -0.000000 0.000000 0.000000 -0.000000 90.000000 0.000000 -2.309062 0.000000 0.000000 2.309062 0.000000 0.000000 8.520406 0.000000 0.000000 1.905762 0.000000 -0.000000 -4.658285 0.000000 0.000000 -0.000000 0.000000 0.000000 8.520406 0.000000 0.000000 1.905762 0.000000 -0.000000 -4.658285 0.000000 0.000000 -0.000000 0.000000
20.984180 49.953215 58.021020 172.365610 -32.837422 -6.533476 7.541423 22.969218 8.312364 0.994062 3.774431 0.966003 1.586666 5.927601 1.558790 5.999332 19.271946 5.916304 -1.805351 16.254144 0.328084 -3.468791 -5.580360 1.247281 -2.494076 -4.008507 -7.638884 8.804773 -0.716234 -6.749791 -136.715176 -49.069211 151.092323 -0.511260 -1.810032 67.234882 -9.890203 -5.786949 1.381252 -3.280990 -5.639958 8.762824 162.566104 -62.739719 -177.769550 24.708839 -7.587998 -22.980317 -0.491413 -47.525942 10.997259 -139.579753 85.406303 -127.416304 -1.845987 -14.057028 -4.940447 -0.077941 0.733709 -0.040002 -8.312617 -51.693640 17.058806 -152.243867 80.400873 -160.127491 0.501565 -17.388916 8.000249 -0.424654 -0.706200 -0.168806
20.986395 49.950920 58.017650 172.366039 -32.836834 -6.538698 7.577822 23.031792 8.342189 0.999234 3.787985 0.970689 1.595839 5.951730 1.563835 6.018608 19.303210 5.923704 -1.804408 16.275855 0.338184 -3.470156 -5.539721 1.265099 -2.466099 -3.967535 -7.609482 8.825826 -0.771162 -6.787362 -136.914603 -49.080503 151.182648 -0.383670 -1.737930 67.380983 -9.957900 -5.739404 1.372636 -3.709891 -5.695358 8.823089 162.423894 -63.090943 -177.560145 24.488894 -7.450042 -22.702500 -0.527248 -47.523300 10.999211 -139.812722 85.410013 -127.625648 -1.867477 -14.049524 -4.982337 -0.069648 0.716851 -0.033446 -8.270447 -51.701856 17.048274 -152.196070 80.387863 -160.065600 0.490661 -17.394686 8.014463 -0.405943 -0.704633 -0.165691
20.985936 49.947818 58.014320 172.346565 -32.835235 -6.518043 7.622769 23.090153 8.357261 1.002643 3.804394 0.972552 1.604496 5.976188 1.568287 6.035944 19.335549 5.928809 -1.802740 16.296256 0.346068 -3.469335 -5.501665 1.278588 -2.438413 -3.926514 -7.581492 8.847191 -0.831185 -6.828152 -137.107037 -49.089983 151.269592 -0.251858 -1.674991 67.529848 -10.035818 -5.687444 1.363831 -4.130259 -5.727228 8.885012 162.192629 -63.418674 -177.261566 24.252551 -7.260126 -22.465144 -0.529720 -47.528080 10.981063 -140.063280 85.414835 -127.873570 -1.840786 -14.041896 -5.009616 -0.038672 0.720706 -0.029730 -8.223961 -51.705488 17.039189 -152.242283 80.382374 -160.130725 0.469224 -17.404673 8.051521 -0.431260 -0.704138 -0.176457
20.986185 49.944227 58.012615 172.343789 -32.825744 -6.513570 7.655176 23.141847 8.377694 1.001454 3.821694 0.973644 1.612364 6.001773 1.571909 6.050078 19.370470 5.930482 -1.798307 16.314473 0.351733 -3.462588 -5.467738 1.286938 -2.409761 -3.890118 -7.555242 8.869006 -0.897169 -6.870207 -137.267617 -49.223736 151.295645 -0.175510 -1.737784 67.729971 -10.119229 -5.637987 1.356235 -4.515210 -5.737599 8.946909 161.884569 -63.707798 -176.900856 24.005933 -7.039574 -22.280248 -0.554256 -47.541201 10.976313 -140.282478 85.417703 -128.083161 -1.849597 -14.019907 -5.019002 -0.042968 0.724724 -0.036280 -8.186610 -51.721794 17.027488 -152.229136 80.374544 -160.115729 0.455789 -17.408028 8.063935 -0.419485 -0.701349 -0.176468
20.987094 49.940783 58.012233 172.340485 -32.814473 -6.515860 7.698502 23.240164 8.413125 0.994649 3.792345 0.965879 1.619438 6.029308 1.575221 6.060700 19.409014 5.930189 -1.792314 16.328254 0.353268 -3.451615 -5.442243 1.287156 -2.380269 -3.863031 -7.532615 8.893514 -0.967769 -6.908939 -137.434228 -49.298730 151.350984 -0.092041 -1.750867 67.922718 -10.207219 -5.597142 1.349198 -4.843506 -5.731299 9.007599 161.532103 -63.945832 -176.520953 23.763340 -6.812310 -22.145891 -0.578261 -47.556210 10.979408 -140.464242 85.422370 -128.254094 -1.844105 -13.998610 -5.037009 -0.045322 0.719242 -0.038344 -8.135829 -51.745050 17.010914 -152.192556 80.363214 -160.057216 0.438167 -17.409382 8.060551 -0.409203 -0.700101 -0.155498
20.987554 49.938323 58.012169 172.331467 -32.808853 -6.514842 7.729955 23.316953 8.431810 0.996299 3.795207 0.966016 1.626007 6.059034 1.578494 6.068558 19.451247 5.928689 -1.788059 16.336079 0.350425 -3.442531 -5.428052 1.280080 -2.354202 -3.846264 -7.513583 8.926099 -1.041060 -6.942062 -137.585893 -49.342847 151.416304 -0.003880 -1.743970 68.111640 -10.299398 -5.566921 1.341403 -5.111610 -5.716873 9.067899 161.196281 -64.138795 -176.174252 23.541118 -6.609190 -22.048653 -0.583049 -47.566147 10.979002 -140.589224 85.429437 -128.364961 -1.840374 -13.980436 -5.057758 -0.032018 0.721630 -0.032609 -8.116091 -51.752772 17.017333 -152.189428 80.358392 -160.062591 0.431691 -17.417599 8.081291 -0.422461 -0.696648 -0.159260
20.986370 49.936549 58.012938 172.309553 -32.804741 -6.499761 7.757579 23.363391 8.434475 0.999244 3.834204 0.968922 1.632145 6.090376 1.581482 6.073954 19.496402 5.925366 -1.785506 16.338711 0.345025 -3.435892 -5.423441 1.269111 -2.331570 -3.837085 -7.497588 8.966733 -1.116453 -6.972399 -137.746034 -49.341292 151.503517 0.076352 -1.694501 68.302042 -10.389275 -5.544738 1.333253 -5.328120 -5.702296 9.128269 160.929248 -64.296995 -175.900968 23.347504 -6.456861 -21.980575 -0.582158 -47.577003 10.966524 -140.849525 85.446100 -128.615341 -1.825834 -13.953382 -5.081504 -0.023358 0.718920 -0.031582 -8.053927 -51.762734 17.006827 -152.140091 80.350489 -160.020848 0.417400 -17.422495 8.115527 -0.431653 -0.697098 -0.165178
20.982448 49.935298 58.014804 172.292056 -32.796884 -6.473447 7.767097 23.374025 8.417033 1.000100 3.862992 0.970803 1.635717 6.169503 1.588038 6.076695 19.543292 5.920525 -1.782816 16.340016 0.338183 -3.428491 -5.421221 1.255479 -2.307892 -3.833371 -7.486249 9.007744 -1.192276 -7.003492 -137.889833 -49.335496 151.587034 0.130547 -1.636957 68.501682 -10.470058 -5.526171 1.323069 -5.504779 -5.691535 9.188507 160.759059 -64.423129 -175.724756 23.181569 -6.364642 -21.934589 -0.579288 -47.592544 10.928806 -141.244063 85.464033 -129.006631 -1.787883 -13.918675 -5.096233 -0.049463 0.699168 -0.046485 -7.980689 -51.779612 16.963872 -152.099302 80.346762 -159.972420 0.401240 -17.417631 8.121443 -0.412709 -0.702176 -0.164410
